<svg xmlns="http://www.w3.org/2000/svg" width="192" height="192" fill="#000000" viewBox="0 0 256 256"><rect width="256" height="256" fill="none"></rect><path d="M92.7,216H48a8,8,0,0,1-8-8V163.3a7.9,7.9,0,0,1,2.3-5.6l120-120a8,8,0,0,1,11.4,0l44.6,44.6a8,8,0,0,1,0,11.4l-120,120A7.9,7.9,0,0,1,92.7,216Z" fill="none" stroke="#000000" stroke-linecap="round" stroke-linejoin="round" stroke-width="16"></path><line x1="136" y1="64" x2="192" y2="120" fill="none" stroke="#000000" stroke-linecap="round" stroke-linejoin="round" stroke-width="16"></line><polyline points="160 192 200 152 192 120" fill="none" stroke="#000000" stroke-linecap="round" stroke-linejoin="round" stroke-width="16"></polyline><line x1="40.5" y1="160.5" x2="95.5" y2="215.5" fill="none" stroke="#000000" stroke-linecap="round" stroke-linejoin="round" stroke-width="16"></line></svg>